HIERARCHY
ROOT Hips
{
	OFFSET 0.000000 0.000000 0.000000
	CHANNELS 6 Xposition Yposition Zposition Xrotation Yrotation Zrotation
	JOINT LeftUpLeg_virtual
	{
		OFFSET 0.000000 0.000000 0.000000
		CHANNELS 3 Xrotation Yrotation Zrotation
		JOINT LeftUpLeg
		{
			OFFSET 10.205400 -3.823500 0.155100
			CHANNELS 3 Xrotation Yrotation Zrotation
			JOINT LeftLeg
			{
				OFFSET 0.708757 -12.982077 0.567790
				CHANNELS 3 Xrotation Yrotation Zrotation
				JOINT LeftFoot
				{
					OFFSET -0.708756 -10.717838 -2.184338
					CHANNELS 3 Xrotation Yrotation Zrotation
					JOINT LeftToeBase
					{
						OFFSET 0.108149 -7.191104 7.560241
						CHANNELS 3 Xrotation Yrotation Zrotation
						JOINT LeftToe_End
						{
							OFFSET 0.070230 0.081724 4.490308
							CHANNELS 3 Xrotation Yrotation Zrotation
							End Site
							{
								OFFSET 0 0 0
							}
						}
					}
				}
			}
		}
	}
	JOINT RightUpLeg_virtual
	{
		OFFSET 0.000000 0.000000 0.000000
		CHANNELS 3 Xrotation Yrotation Zrotation
		JOINT RightUpLeg
		{
			OFFSET -10.205400 -3.823500 0.005500
			CHANNELS 3 Xrotation Yrotation Zrotation
			JOINT RightLeg
			{
				OFFSET -0.708756 -12.982134 0.610632
				CHANNELS 3 Xrotation Yrotation Zrotation
				JOINT RightFoot
				{
					OFFSET 0.708754 -10.717769 -1.945823
					CHANNELS 3 Xrotation Yrotation Zrotation
					JOINT RightToeBase
					{
						OFFSET -0.108140 -7.191069 7.372968
						CHANNELS 3 Xrotation Yrotation Zrotation
						JOINT RightToe_End
						{
							OFFSET -0.070227 0.081735 4.479403
							CHANNELS 3 Xrotation Yrotation Zrotation
							End Site
							{
								OFFSET 0 0 0
							}
						}
					}
				}
			}
		}
	}
	JOINT Spine_virtual
	{
		OFFSET 0.000000 0.000000 0.000000
		CHANNELS 3 Xrotation Yrotation Zrotation
		JOINT Spine
		{
			OFFSET 0.000000 6.876099 0.125700
			CHANNELS 3 Xrotation Yrotation Zrotation
			JOINT Spine1
			{
				OFFSET 0.000000 5.730043 0.104720
				CHANNELS 3 Xrotation Yrotation Zrotation
				JOINT Spine1_split
				{
					OFFSET 0.000000 5.730043 0.104720
					CHANNELS 3 Xrotation Yrotation Zrotation
					JOINT Spine2
					{
						OFFSET 0.000000 5.730043 0.104720
						CHANNELS 3 Xrotation Yrotation Zrotation
						JOINT Neck_virtual
						{
							OFFSET 0.000000 0.000000 0.000000
							CHANNELS 3 Xrotation Yrotation Zrotation
							JOINT Neck
							{
								OFFSET 0.000000 10.314075 0.188496
								CHANNELS 3 Xrotation Yrotation Zrotation
								JOINT Head
								{
									OFFSET 0.000000 7.643700 -2.377400
									CHANNELS 3 Xrotation Yrotation Zrotation
									JOINT HeadTop_End
									{
										OFFSET 0.000000 43.788605 -13.619600
										CHANNELS 3 Xrotation Yrotation Zrotation
										End Site
										{
											OFFSET 0 0 0
										}
									}
								}
							}
						}
						JOINT LeftShoulder_virtual
						{
							OFFSET 0.000000 0.000000 0.000000
							CHANNELS 3 Xrotation Yrotation Zrotation
							JOINT LeftShoulder
							{
								OFFSET 2.196100 4.412489 0.087492
								CHANNELS 3 Xrotation Yrotation Zrotation
								JOINT LeftShoulder_split
								{
									OFFSET 2.196100 4.412489 0.087492
									CHANNELS 3 Xrotation Yrotation Zrotation
									JOINT LeftArm
									{
										OFFSET 8.771219 -2.981674 -0.026999
										CHANNELS 3 Xrotation Yrotation Zrotation
										JOINT LeftForeArm
										{
											OFFSET 8.512804 0.000000 -0.000000
											CHANNELS 3 Xrotation Yrotation Zrotation
											JOINT LeftHand
											{
												OFFSET 18.484802 0.000000 -0.000000
												CHANNELS 3 Xrotation Yrotation Zrotation
												End Site
												{
													OFFSET 0 0 0
												}
											}
										}
									}
								}
							}
						}
						JOINT RightShoulder_virtual
						{
							OFFSET 0.000000 0.000000 0.000000
							CHANNELS 3 Xrotation Yrotation Zrotation
							JOINT RightShoulder
							{
								OFFSET -2.196100 4.412496 0.070690
								CHANNELS 3 Xrotation Yrotation Zrotation
								JOINT RightShoulder_split
								{
									OFFSET -2.196100 4.412496 0.070690
									CHANNELS 3 Xrotation Yrotation Zrotation
									JOINT RightArm
									{
										OFFSET -8.771282 -2.981682 -0.094208
										CHANNELS 3 Xrotation Yrotation Zrotation
										JOINT RightForeArm
										{
											OFFSET -8.494598 0.000000 0.000000
											CHANNELS 3 Xrotation Yrotation Zrotation
											JOINT RightHand
											{
												OFFSET -18.483803 0.000000 0.000001
												CHANNELS 3 Xrotation Yrotation Zrotation
												End Site
												{
													OFFSET 0 0 0
												}
											}
										}
									}
								}
							}
						}
					}
				}
			}
		}
	}
}
MOTION
Frames: 4
Frame Time: 0.03333333
1.882136 35.072517 -3.123004 0.000000 0.000000 0.000000 -3.192856 0.222896 1.523473 -4.433573 12.123664 6.396896 17.848210 3.975891 3.693233 -11.834583 10.565259 -16.964619 4.194535 -4.664369 0.341497 0.000000 0.000000 0.000000 -3.126272 0.234279 1.573452 3.366691 -12.662951 -3.088659 17.074752 -0.191152 -0.641624 -21.264399 -14.846646 12.861357 3.012495 3.688914 -7.917984 0.000000 0.000000 0.000000 -3.596775 2.515283 1.564533 1.410959 0.812621 -1.391383 0.131442 -1.027566 0.330556 0.122520 -0.304720 -0.017985 0.000000 0.000000 0.000000 0.906695 1.211062 -0.202210 1.946871 4.250852 3.250865 0.852612 -14.530785 -10.035747 0.000000 0.000000 0.000000 -0.407104 -0.328433 -0.349733 1.924028 -8.297140 -11.723348 0.251394 -2.210009 -3.478701 -3.208523 -3.481212 -58.630392 2.632249 -19.157163 -3.374086 0.000000 0.000000 0.000000 0.397775 -0.164395 0.070221 3.012423 -3.459371 14.321853 -5.945551 -0.568240 0.371374 2.840713 5.391984 64.290740 -4.217535 18.047983 4.586828 0.000000 0.000000 0.000000 
1.896833 35.082985 -3.213975 0.000000 0.000000 0.000000 -3.293624 0.244636 1.541833 -4.617602 12.109128 6.415743 17.874236 3.996591 3.713426 -11.633165 10.391397 -17.027025 4.215825 -4.638708 0.280978 0.000000 0.000000 0.000000 -3.227094 0.313440 1.590281 3.539066 -12.601054 -3.067722 16.938321 -0.210314 -0.658688 -21.201981 -14.901483 12.865908 3.207441 3.656097 -7.897609 0.000000 0.000000 0.000000 -3.723320 2.694156 1.635776 1.518795 0.915900 -1.313977 0.190595 -0.968735 0.299604 0.133137 -0.256908 0.001299 0.000000 0.000000 0.000000 0.842371 1.243390 -0.202110 1.929194 4.174084 3.307047 0.749814 -14.750229 -9.916931 0.000000 0.000000 0.000000 -0.401804 -0.269968 -0.408186 1.897039 -8.035700 -11.874058 0.107692 -1.698825 -3.696633 -2.250738 -2.725090 -58.466098 2.721881 -18.172680 -3.308729 0.000000 0.000000 0.000000 0.429245 -0.087652 0.021498 2.921299 -3.218231 14.240764 -6.152492 0.036359 0.274472 1.980565 5.890636 64.288486 -4.176943 18.833451 4.433915 0.000000 0.000000 0.000000 
1.889045 35.073757 -3.331348 0.000000 0.000000 0.000000 -3.490572 0.574196 1.668505 -4.986851 12.053087 6.360258 18.145190 4.014133 3.680864 -11.507112 10.026285 -16.831143 4.336669 -4.606732 0.291680 0.000000 0.000000 0.000000 -3.423311 0.744633 1.702206 3.762814 -12.486031 -3.087981 17.134880 -0.273060 -0.644681 -21.346165 -15.147770 12.841720 3.223723 3.617235 -7.967531 0.000000 0.000000 0.000000 -4.014198 3.118715 1.764009 1.801158 1.059432 -1.175882 0.234056 -0.862002 0.238886 0.143798 -0.254000 0.011629 0.000000 0.000000 0.000000 0.766289 1.327259 -0.232165 1.887911 4.087624 3.403010 0.549261 -15.265063 -9.804994 0.000000 0.000000 0.000000 -0.390356 -0.170351 -0.504484 1.880688 -7.757095 -11.958128 -0.133292 -1.449746 -3.650513 -0.954846 -1.410816 -58.456898 2.735759 -16.921054 -3.270096 0.000000 0.000000 0.000000 0.467762 0.044333 -0.057214 2.804638 -2.793783 14.137272 -6.004191 0.111195 0.318841 0.722981 6.901224 64.204625 -4.054111 19.895352 4.207706 0.000000 0.000000 0.000000 
1.860947 35.049767 -3.454968 0.000000 0.000000 0.000000 -3.744398 1.155350 1.872673 -5.460019 11.963078 6.230741 18.634417 4.008147 3.624103 -11.494224 9.514364 -16.431991 4.575569 -4.568800 0.369607 0.000000 0.000000 0.000000 -3.692171 1.433459 1.893030 4.046785 -12.314004 -3.135862 17.539957 -0.377893 -0.620012 -21.763843 -15.567818 12.729330 3.142636 3.571844 -8.111197 0.000000 0.000000 0.000000 -4.420740 3.715470 1.933508 2.197544 1.217069 -1.021091 0.255352 -0.726074 0.164234 0.152078 -0.276293 0.005828 0.000000 0.000000 0.000000 0.702929 1.447970 -0.280480 1.816028 4.007199 3.509402 0.267868 -16.005105 -9.733638 0.000000 0.000000 0.000000 -0.377020 -0.042995 -0.609760 1.889282 -7.466730 -11.942271 -0.285683 -1.502041 -3.429547 0.430368 0.237231 -58.567267 2.679282 -15.791802 -3.249272 0.000000 0.000000 0.000000 0.507515 0.207418 -0.140391 2.674830 -2.265532 14.059387 -5.587230 -0.257163 0.516303 -0.639546 8.091661 64.079243 -3.859280 21.065804 3.947466 0.000000 0.000000 0.000000 
